<svg width="25" height="25" viewBox="0 0 25 25" fill="none" xmlns="http://www.w3.org/2000/svg">
<g id="Insta">
<circle id="Ellipse 1" cx="12.5" cy="12.5" r="12.5" fill="white"/>
<g id="Group 4">
<path id="Vector" d="M15.375 6H9.125C7.39911 6 6 7.39911 6 9.125V15.375C6 17.1009 7.39911 18.5 9.125 18.5H15.375C17.1009 18.5 18.5 17.1009 18.5 15.375V9.125C18.5 7.39911 17.1009 6 15.375 6Z" stroke="black" stroke-linecap="round" stroke-linejoin="round"/>
<path id="Vector_2" d="M14.7499 11.8564C14.8271 12.3766 14.7382 12.9078 14.496 13.3746C14.2539 13.8413 13.8707 14.2198 13.401 14.4562C12.9313 14.6926 12.399 14.7749 11.8798 14.6914C11.3606 14.6079 10.881 14.3627 10.5092 13.9909C10.1374 13.6191 9.89227 13.1395 9.80873 12.6203C9.72519 12.1012 9.80748 11.5689 10.0439 11.0992C10.2803 10.6295 10.6588 10.2463 11.1256 10.0041C11.5923 9.7619 12.1235 9.67306 12.6437 9.75019C13.1743 9.82887 13.6655 10.0761 14.0447 10.4554C14.424 10.8347 14.6713 11.3259 14.7499 11.8564Z" stroke="black" stroke-linecap="round" stroke-linejoin="round"/>
<path id="Vector_3" d="M15.6875 8.8125H15.6938" stroke="black" stroke-linecap="round" stroke-linejoin="round"/>
</g>
</g>
</svg>
