<svg width="25" height="25" viewBox="0 0 25 25" fill="none" xmlns="http://www.w3.org/2000/svg">
<g id="Linkedin">
<circle id="Ellipse 2" cx="12.5" cy="12.5" r="12.5" fill="white"/>
<g id="Group 3">
<path id="Vector" d="M14.25 9.75C15.2446 9.75 16.1984 10.1451 16.9017 10.8483C17.6049 11.5516 18 12.5054 18 13.5V17.875H15.5V13.5C15.5 13.1685 15.3683 12.8505 15.1339 12.6161C14.8995 12.3817 14.5815 12.25 14.25 12.25C13.9185 12.25 13.6005 12.3817 13.3661 12.6161C13.1317 12.8505 13 13.1685 13 13.5V17.875H10.5V13.5C10.5 12.5054 10.8951 11.5516 11.5983 10.8483C12.3016 10.1451 13.2554 9.75 14.25 9.75Z" fill="black"/>
<path id="Vector_2" d="M9.5 10.375H7V17.875H9.5V10.375Z" fill="black"/>
<path id="Vector_3" d="M8.25 8.5C8.94036 8.5 9.5 7.94036 9.5 7.25C9.5 6.55964 8.94036 6 8.25 6C7.55964 6 7 6.55964 7 7.25C7 7.94036 7.55964 8.5 8.25 8.5Z" fill="black"/>
</g>
</g>
</svg>
