<svg width="25" height="25" viewBox="0 0 25 25" fill="none" xmlns="http://www.w3.org/2000/svg">
<g id="Twitter">
<circle id="Ellipse 3" cx="12.5" cy="12.5" r="12.5" fill="white"/>
<path id="Vector" d="M20 6.00686C19.3471 6.46741 18.6242 6.81966 17.8591 7.05004C17.4485 6.57789 16.9027 6.24324 16.2957 6.09135C15.6887 5.93947 15.0497 5.97767 14.4651 6.2008C13.8805 6.42393 13.3785 6.82122 13.027 7.33894C12.6756 7.85665 12.4916 8.46981 12.5 9.09549V9.77731C11.3018 9.80838 10.1145 9.54264 9.04387 9.00375C7.97323 8.46486 7.05249 7.66956 6.36364 6.68867C6.36364 6.68867 3.63636 12.825 9.77273 15.5523C8.36854 16.5055 6.69579 16.9834 5 16.9159C11.1364 20.325 18.6364 16.9159 18.6364 9.07504C18.6357 8.88512 18.6175 8.69567 18.5818 8.50913C19.2777 7.82287 19.7687 6.95643 20 6.00686Z" fill="black"/>
</g>
</svg>
