<svg width="31" height="31" viewBox="0 0 31 31" fill="none" xmlns="http://www.w3.org/2000/svg">
<path d="M1.5781 1.57813C2.10552 1.05087 2.82076 0.754669 3.56654 0.754669C4.31231 0.754669 5.02755 1.05087 5.55498 1.57813L15.5 11.5231L25.445 1.57813C25.9754 1.06581 26.6859 0.782327 27.4233 0.788735C28.1607 0.795143 28.8661 1.09093 29.3876 1.61239C29.909 2.13385 30.2048 2.83926 30.2112 3.57669C30.2177 4.31412 29.9342 5.02456 29.4219 5.55501L19.4768 15.5L29.4219 25.445C29.9342 25.9755 30.2177 26.6859 30.2112 27.4233C30.2048 28.1607 29.909 28.8662 29.3876 29.3876C28.8661 29.9091 28.1607 30.2049 27.4233 30.2113C26.6859 30.2177 25.9754 29.9342 25.445 29.4219L15.5 19.4769L5.55498 29.4219C5.02453 29.9342 4.31409 30.2177 3.57666 30.2113C2.83923 30.2049 2.13382 29.9091 1.61236 29.3876C1.0909 28.8662 0.795113 28.1607 0.788705 27.4233C0.782297 26.6859 1.06578 25.9755 1.5781 25.445L11.5231 15.5L1.5781 5.55501C1.05084 5.02759 0.754639 4.31234 0.754639 3.56657C0.754639 2.82079 1.05084 2.10555 1.5781 1.57813Z" fill="white"/>
</svg>
